<svg xmlns="http://www.w3.org/2000/svg" width="1200" height="700" viewBox="0 0 1200 700" fill="none">
  <defs>
    <linearGradient id="g1" x1="0" y1="0" x2="1200" y2="700" gradientUnits="userSpaceOnUse">
      <stop stop-color="#8257FF" stop-opacity="0.85"/>
      <stop offset="0.55" stop-color="#2FFFE0" stop-opacity="0.55"/>
      <stop offset="1" stop-color="#FF3D9A" stop-opacity="0.75"/>
    </linearGradient>
    <radialGradient id="glow" cx="0" cy="0" r="1" gradientUnits="userSpaceOnUse" gradientTransform="translate(600 330) rotate(90) scale(360 520)">
      <stop stop-color="#FFFFFF" stop-opacity="0.22"/>
      <stop offset="1" stop-color="#FFFFFF" stop-opacity="0"/>
    </radialGradient>
    <filter id="blur" x="-30%" y="-30%" width="160%" height="160%">
      <feGaussianBlur stdDeviation="18"/>
    </filter>
  </defs>

  <rect x="0" y="0" width="1200" height="700" rx="48" fill="rgba(15,22,48,0.55)"/>
  <rect x="30" y="30" width="1140" height="640" rx="40" fill="url(#g1)" opacity="0.22"/>

  <g filter="url(#blur)" opacity="0.9">
    <circle cx="180" cy="160" r="120" fill="#8257FF" opacity="0.28"/>
    <circle cx="1030" cy="140" r="140" fill="#2FFFE0" opacity="0.16"/>
    <circle cx="980" cy="580" r="150" fill="#FF3D9A" opacity="0.18"/>
  </g>

  <rect x="110" y="150" width="980" height="420" rx="36" fill="rgba(6,7,18,0.7)" stroke="rgba(255,255,255,0.12)"/>
  <rect x="150" y="190" width="420" height="60" rx="18" fill="rgba(255,255,255,0.06)"/>
  <rect x="150" y="270" width="540" height="14" rx="7" fill="rgba(255,255,255,0.16)"/>
  <rect x="150" y="298" width="470" height="14" rx="7" fill="rgba(255,255,255,0.12)"/>
  <rect x="150" y="326" width="520" height="14" rx="7" fill="rgba(255,255,255,0.10)"/>

  <g>
    <rect x="150" y="390" width="250" height="70" rx="18" fill="rgba(130,87,255,0.22)" stroke="rgba(130,87,255,0.5)"/>
    <rect x="420" y="390" width="250" height="70" rx="18" fill="rgba(47,255,224,0.16)" stroke="rgba(47,255,224,0.42)"/>
    <rect x="690" y="390" width="250" height="70" rx="18" fill="rgba(255,61,154,0.14)" stroke="rgba(255,61,154,0.42)"/>
  </g>

  <rect x="150" y="488" width="790" height="28" rx="14" fill="rgba(255,255,255,0.06)"/>
  <rect x="150" y="526" width="650" height="18" rx="9" fill="rgba(255,255,255,0.05)"/>

  <rect x="110" y="150" width="980" height="420" rx="36" fill="url(#glow)"/>

  <g opacity="0.9">
    <path d="M590 228c0-16 13-29 29-29h32c16 0 29 13 29 29v32c0 16-13 29-29 29h-32c-16 0-29-13-29-29v-32z" fill="rgba(255,255,255,0.06)"/>
    <path d="M630 214h10c20 0 36 16 36 36v10c0 20-16 36-36 36h-10c-20 0-36-16-36-36v-10c0-20 16-36 36-36z" fill="rgba(255,255,255,0.06)"/>
  </g>
</svg>

